<svg width="30" height="30" viewBox="0 0 30 30" fill="none" xmlns="http://www.w3.org/2000/svg">
<g clip-path="url(#clip0)">
<mask id="path-1-outside-1" maskUnits="userSpaceOnUse" x="0.824989" y="-0.536133" width="29" height="31" fill="black">
<rect fill="white" x="0.824989" y="-0.536133" width="29" height="31"/>
<path fill-rule="evenodd" clip-rule="evenodd" d="M26.1511 7.23007C26.5195 6.6211 26.3348 5.82834 25.7343 5.44132L19.8967 1.67921C19.0002 1.10148 17.8827 1.76419 17.8638 2.74227C16.9418 2.53792 15.9835 2.43016 15 2.43016V7.0214C12.2477 7.71865 9.98109 8.44246 8.19351 9.23558C5.68044 10.3506 3.64696 11.8045 2.92233 13.9755C2.74048 14.5203 2.65543 15.0646 2.65028 15.6052H1.82499C1.82499 22.8815 7.72365 28.7802 15 28.7802C22.2764 28.7802 28.175 22.8815 28.175 15.6052C28.175 12.7475 27.2652 10.1023 25.7194 7.94345L26.1511 7.23007ZM9.8209 12.8353C11.1454 12.2476 12.8553 11.6748 15 11.0993V15.6052L6.61928 15.6052C6.62529 15.4569 6.65066 15.3333 6.68525 15.2297C6.86278 14.6978 7.54941 13.8431 9.8209 12.8353Z"/>
</mask>
<path fill-rule="evenodd" clip-rule="evenodd" d="M26.1511 7.23007C26.5195 6.6211 26.3348 5.82834 25.7343 5.44132L19.8967 1.67921C19.0002 1.10148 17.8827 1.76419 17.8638 2.74227C16.9418 2.53792 15.9835 2.43016 15 2.43016V7.0214C12.2477 7.71865 9.98109 8.44246 8.19351 9.23558C5.68044 10.3506 3.64696 11.8045 2.92233 13.9755C2.74048 14.5203 2.65543 15.0646 2.65028 15.6052H1.82499C1.82499 22.8815 7.72365 28.7802 15 28.7802C22.2764 28.7802 28.175 22.8815 28.175 15.6052C28.175 12.7475 27.2652 10.1023 25.7194 7.94345L26.1511 7.23007ZM9.8209 12.8353C11.1454 12.2476 12.8553 11.6748 15 11.0993V15.6052L6.61928 15.6052C6.62529 15.4569 6.65066 15.3333 6.68525 15.2297C6.86278 14.6978 7.54941 13.8431 9.8209 12.8353Z" fill="#333333"/>
<path d="M25.7343 5.44132L25.1926 6.28189V6.28189L25.7343 5.44132ZM26.1511 7.23007L27.0066 7.74776V7.74776L26.1511 7.23007ZM19.8967 1.67921L19.355 2.51978L19.8967 1.67921ZM17.8638 2.74227L17.6474 3.71858L18.84 3.98292L18.8636 2.76158L17.8638 2.74227ZM15 2.43016V1.43016H14V2.43016H15ZM15 7.0214L15.2456 7.99078L16 7.79966V7.0214H15ZM8.19351 9.23558L8.59907 10.1496L8.19351 9.23558ZM2.92233 13.9755L1.97378 13.6589H1.97378L2.92233 13.9755ZM2.65028 15.6052V16.6052H3.64079L3.65023 15.6147L2.65028 15.6052ZM1.82499 15.6052V14.6052H0.824989V15.6052H1.82499ZM25.7194 7.94345L24.8638 7.42576L24.5226 7.9897L24.9064 8.52562L25.7194 7.94345ZM15 11.0993H16V9.79567L14.7409 10.1335L15 11.0993ZM9.8209 12.8353L10.2265 13.7494L9.8209 12.8353ZM15 15.6052V16.6052H16V15.6052H15ZM6.61928 15.6052L5.6201 15.5647L5.57794 16.6052H6.61928V15.6052ZM6.68525 15.2297L7.63381 15.5463L7.63381 15.5463L6.68525 15.2297ZM25.1926 6.28189C25.341 6.37752 25.382 6.56936 25.2955 6.71239L27.0066 7.74776C27.657 6.67283 27.3287 5.27915 26.276 4.60076L25.1926 6.28189ZM19.355 2.51978L25.1926 6.28189L26.276 4.60076L20.4384 0.838647L19.355 2.51978ZM18.8636 2.76158C18.8654 2.66513 18.9208 2.56501 19.0316 2.50435C19.1302 2.45035 19.2395 2.44535 19.355 2.51978L20.4384 0.838647C18.8571 -0.180417 16.8974 0.993938 16.864 2.72296L18.8636 2.76158ZM15 3.43016C15.9102 3.43016 16.796 3.52987 17.6474 3.71858L18.0802 1.76596C17.0876 1.54596 16.0567 1.43016 15 1.43016V3.43016ZM16 7.0214V2.43016H14V7.0214H16ZM8.59907 10.1496C10.3137 9.3889 12.5196 8.68137 15.2456 7.99078L14.7544 6.05202C11.9758 6.75593 9.64849 7.49602 7.78795 8.32151L8.59907 10.1496ZM3.87089 14.2921C4.45559 12.5403 6.14504 11.2385 8.59907 10.1496L7.78795 8.32151C5.21584 9.46272 2.83833 11.0686 1.97378 13.6589L3.87089 14.2921ZM3.65023 15.6147C3.65443 15.1744 3.72338 14.734 3.87089 14.2921L1.97378 13.6589C1.75758 14.3066 1.65643 14.9548 1.65032 15.5956L3.65023 15.6147ZM1.82499 16.6052H2.65028V14.6052H1.82499V16.6052ZM15 27.7802C8.27593 27.7802 2.82499 22.3292 2.82499 15.6052H0.824989C0.824989 23.4338 7.17136 29.7802 15 29.7802V27.7802ZM27.175 15.6052C27.175 22.3292 21.7241 27.7802 15 27.7802V29.7802C22.8287 29.7802 29.175 23.4338 29.175 15.6052H27.175ZM24.9064 8.52562C26.3346 10.5203 27.175 12.9631 27.175 15.6052H29.175C29.175 12.5318 28.1958 9.68426 26.5325 7.36127L24.9064 8.52562ZM25.2955 6.71239L24.8638 7.42576L26.575 8.46113L27.0066 7.74776L25.2955 6.71239ZM14.7409 10.1335C12.5696 10.716 10.8052 11.3046 9.41535 11.9212L10.2265 13.7494C11.4855 13.1907 13.1409 12.6335 15.2591 12.0652L14.7409 10.1335ZM16 15.6052V11.0993H14V15.6052H16ZM6.61928 16.6052L15 16.6052V14.6052L6.61928 14.6052V16.6052ZM5.7367 14.9131C5.6722 15.1063 5.6299 15.3229 5.6201 15.5647L7.61846 15.6457C7.62068 15.591 7.62912 15.5603 7.63381 15.5463L5.7367 14.9131ZM9.41535 11.9212C7.08271 12.9562 6.05375 13.9632 5.7367 14.9131L7.63381 15.5463C7.67181 15.4325 8.01611 14.7301 10.2265 13.7494L9.41535 11.9212Z" fill="#EF3340" mask="url(#path-1-outside-1)"/>
<path fill-rule="evenodd" clip-rule="evenodd" d="M15 28.7801C22.2764 28.7801 28.175 22.8814 28.175 15.6051C28.175 8.32871 22.2764 2.43005 15 2.43005V15.6051H1.82498C1.82498 22.8814 7.72364 28.7801 15 28.7801Z" fill="#EF3340"/>
<path d="M12.0192 25.911C1.25164 15.6825 1.08408 11.9452 19.404 8.02536" stroke="#333333" stroke-width="3.9525"/>
<path d="M25.7343 5.44122C26.3348 5.82824 26.5195 6.621 26.1511 7.22997L22.5691 13.1498C21.958 14.1598 20.424 13.9124 20.1557 12.7605L17.9 3.0786C17.6316 1.92666 18.9006 1.03719 19.8967 1.67911L25.7343 5.44122Z" fill="#333333"/>
</g>
<defs>
<clipPath id="clip0">
<rect width="30" height="30" fill="white"/>
</clipPath>
</defs>
</svg>
