<svg width="21" height="24" viewBox="0 0 21 24" fill="none" xmlns="http://www.w3.org/2000/svg">
<path fill-rule="evenodd" clip-rule="evenodd" d="M4.8 2.4H14.4C15.7255 2.4 16.8 3.47452 16.8 4.8V6C16.8 6.66274 17.3373 7.2 18 7.2C18.6627 7.2 19.2 6.66274 19.2 6V4.8C19.2 2.14903 17.051 0 14.4 0H4.8C2.14903 0 0 2.14903 0 4.8V19.2C0 21.851 2.14903 24 4.8 24H14.4C17.051 24 19.2 21.851 19.2 19.2V18C19.2 17.3373 18.6627 16.8 18 16.8C17.3373 16.8 16.8 17.3373 16.8 18V19.2C16.8 20.5255 15.7255 21.6 14.4 21.6H4.8C3.47452 21.6 2.4 20.5255 2.4 19.2V4.8C2.4 3.47452 3.47452 2.4 4.8 2.4Z" fill="#F14E5A"/>
<line x1="5.76" y1="12.24" x2="17.76" y2="12.24" stroke="#F14E5A" stroke-width="2.4"/>
<path d="M18.4515 10.8163C19.2781 11.389 19.2781 12.611 18.4515 13.1837L13.4201 16.6695C12.4651 17.3312 11.16 16.6477 11.16 15.4859L11.16 8.5141C11.16 7.35228 12.4651 6.66878 13.4201 7.33043L18.4515 10.8163Z" fill="#F14E5A"/>
</svg>
