<svg width="30" height="30" viewBox="0 0 30 30" fill="none" xmlns="http://www.w3.org/2000/svg">
<circle cx="15" cy="15" r="15" fill="#AAABB2"/>
<rect x="9.39999" y="4" width="11.2" height="14" rx="5.6" fill="#333333"/>
<path d="M13.6 19.4H16.4V25C16.4 25.7732 15.7732 26.4 15 26.4C14.2268 26.4 13.6 25.7732 13.6 25V19.4Z" fill="#333333"/>
<path fill-rule="evenodd" clip-rule="evenodd" d="M22 18C22 17.515 21.347 17.4211 20.9711 17.7275C19.7402 18.7307 17.5264 19.3999 15 19.3999C12.4736 19.3999 10.2598 18.7307 9.02894 17.7275C8.65302 17.4211 8 17.515 8 18C8 20.5773 11.134 22.6666 15 22.6666C18.866 22.6666 22 20.5773 22 18Z" fill="#333333"/>
</svg>
